<svg xmlns="http://www.w3.org/2000/svg" width="164.424" height="25.324" viewBox="0 0 164.424 25.324"><defs><style>.a{fill:#373737;}</style></defs><path class="a" d="M-75.982-1.612c-2.47,0-3.77-1.2-4-2.86a.542.542,0,0,0-.728-.52l-.7.1a.568.568,0,0,0-.546.728,5.142,5.142,0,0,0,1.378,2.886A6.264,6.264,0,0,0-76.034.234c2.106,0,3.614-.468,4.576-1.4a4.7,4.7,0,0,0,1.43-3.536c0-6.89-9.542-4.94-9.542-9.49,0-1.69,1.17-2.99,3.588-2.99,2.366,0,3.64,1.066,3.874,3.172.026.39.26.572.676.52l.728-.1a.6.6,0,0,0,.572-.728c-.286-2.912-2.262-4.706-5.9-4.706a5.647,5.647,0,0,0-4.186,1.456,4.663,4.663,0,0,0-1.4,3.354c0,6.552,9.516,4.316,9.516,9.334C-72.108-2.7-73.408-1.612-75.982-1.612ZM-64.1-13.052h1.17a.552.552,0,0,0,.624-.624v-.572a.552.552,0,0,0-.624-.624h-4.42a.552.552,0,0,0-.624.624v.572a.552.552,0,0,0,.624.624h1.2V-1.82h-1.2a.552.552,0,0,0-.624.624v.572A.552.552,0,0,0-67.35,0h4.42a.552.552,0,0,0,.624-.624V-1.2a.552.552,0,0,0-.624-.624H-64.1Zm-1.066-3.172a2.01,2.01,0,0,0,2-1.95,2.005,2.005,0,0,0-2-1.924,1.977,1.977,0,0,0-2.028,1.924A1.982,1.982,0,0,0-65.166-16.224Zm16.354,15.6A.552.552,0,0,0-48.188,0h.806a.552.552,0,0,0,.624-.624V-12.506c0-.26-.026-.624-.052-1.118.6-1.976,1.924-3.562,4.134-3.562,2.73,0,4.108,1.69,4.108,5.044V-.624A.552.552,0,0,0-37.944,0h.806a.552.552,0,0,0,.624-.624V-12.506a7.547,7.547,0,0,0-1.352-4.706,5.081,5.081,0,0,0-4.368-1.82,5.093,5.093,0,0,0-5.1,3.2q-1.287-3.2-5.148-3.2a4.753,4.753,0,0,0-4.914,3.25h-.1V-18.2a.552.552,0,0,0-.624-.624h-.624a.552.552,0,0,0-.624.624V-.624A.552.552,0,0,0-58.744,0h.806a.552.552,0,0,0,.624-.624V-12.09c0-1.742,1.17-5.1,4.394-5.1,2.73,0,4.108,1.69,4.108,5.044Zm17.758-8.814c0-4.992,1.222-7.748,4.42-7.748,2.938,0,4.186,2.678,4.186,7.748,0,5.2-1.248,7.8-4.186,7.8S-31.054-4.238-31.054-9.438ZM-30.69-2.6A3.925,3.925,0,0,0-26.634.208c4.29,0,6.188-3.2,6.188-9.646,0-6.344-1.9-9.594-6.188-9.594a4.256,4.256,0,0,0-4.186,2.86h-.1V-18.2a.552.552,0,0,0-.624-.624h-.7a.552.552,0,0,0-.624.624V2.626a.552.552,0,0,0,.624.624h.806a.552.552,0,0,0,.624-.624V-2.6Zm13.286.416C-17.4-.6-16.65.208-15.168.208A3.7,3.7,0,0,0-14.31.13a.686.686,0,0,0,.6-.728V-1.43c0-.208-.1-.286-.338-.26a2.007,2.007,0,0,1-.39.052c-.624,0-.91-.26-.91-1.066V-21.45a.552.552,0,0,0-.624-.624h-.806a.552.552,0,0,0-.624.624ZM-5.444.234C-1.206.312.614-2.132.614-5.8V-18.2a.552.552,0,0,0-.624-.624H-.842a.552.552,0,0,0-.624.624v3.952A7.036,7.036,0,0,1-2.4-11.1,3.862,3.862,0,0,1-5.834-9.178c-2.7,0-4.056-1.664-4.056-5.018v-4a.552.552,0,0,0-.624-.624h-.806a.552.552,0,0,0-.624.624v4.368A7.678,7.678,0,0,0-10.592-9.1,5.085,5.085,0,0,0-6.25-7.306,5.078,5.078,0,0,0-2.688-8.5a4.207,4.207,0,0,0,1.144-1.846h.078v4.524c0,2.6-1.2,4.264-3.978,4.186a3.837,3.837,0,0,1-3.12-1.144,3.658,3.658,0,0,1-.78-2.054c-.026-.416-.26-.572-.676-.468l-.65.156a.667.667,0,0,0-.572.754C-11.112-1.352-9.162.182-5.444.234ZM15.928-1.638c-2.444-.1-3.614-1.17-4.16-3.146a18.014,18.014,0,0,1-.442-4.524H21.518a.207.207,0,0,0,.234-.234v-.286a16.833,16.833,0,0,0-.676-5.3,6.123,6.123,0,0,0-1.066-2.054,5.5,5.5,0,0,0-4.42-1.846c-3.276.1-4.94,1.456-5.694,3.848a16.735,16.735,0,0,0-.65,5.33,19.536,19.536,0,0,0,.7,6.006,6.631,6.631,0,0,0,1.118,2.184A6.157,6.157,0,0,0,15.876.208a5.935,5.935,0,0,0,4.186-1.3,4.946,4.946,0,0,0,1.612-3.094.579.579,0,0,0-.52-.754l-.6-.13a.526.526,0,0,0-.7.494C19.646-2.938,18.5-1.638,15.928-1.638Zm-4.576-9.516a10.421,10.421,0,0,1,.832-4.212,3.429,3.429,0,0,1,3.406-1.82c3.2,0,4.03,2.652,4.082,6.032ZM29.994-1.638a3.837,3.837,0,0,1-2.938-1.144A3.982,3.982,0,0,1,25.99-5.538a3.982,3.982,0,0,1,1.066-2.756,3.762,3.762,0,0,1,2.938-1.17,4.3,4.3,0,0,1,3.224,1.17,3.833,3.833,0,0,1,1.144,2.756,3.833,3.833,0,0,1-1.144,2.756A4.395,4.395,0,0,1,29.994-1.638Zm6.292-11.336c0-4.03-2.028-6.058-6.058-6.058-3.718,0-5.72,1.664-5.98,5.018a.649.649,0,0,0,.52.754l.7.182c.39.1.624-.078.65-.52q.351-3.588,4.056-3.588,4.056,0,4.056,4.446v3.328h-.1l-.364-.468a5.433,5.433,0,0,0-3.9-1.43,5.819,5.819,0,0,0-4.316,1.664A5.592,5.592,0,0,0,23.91-5.59a5.687,5.687,0,0,0,1.638,4.134A5.8,5.8,0,0,0,29.838.208,5.094,5.094,0,0,0,33.816-1.4a2.562,2.562,0,0,0,.572-.858h.078v.078c0,1.482.7,2.392,1.976,2.392A4.118,4.118,0,0,0,37.326.13a.748.748,0,0,0,.6-.754V-1.43c0-.234-.1-.312-.312-.26l-.39.052c-.65,0-.936-.312-.936-1.326Zm10.868-4.16c.286,0,.572.026.6.026.364,0,.546-.156.546-.494v-.858a.46.46,0,0,0-.442-.52,3.523,3.523,0,0,0-.52-.052,5.119,5.119,0,0,0-3.874,1.456,5.231,5.231,0,0,0-1.248,2.21h-.1V-18.2a.552.552,0,0,0-.624-.624h-.624a.552.552,0,0,0-.624.624V-.624A.552.552,0,0,0,40.862,0h.832a.552.552,0,0,0,.624-.624V-10.66a9.334,9.334,0,0,1,.884-4.134A4.107,4.107,0,0,1,47.154-17.134Zm5.954-2.522a.552.552,0,0,0-.624-.624h-.806a.552.552,0,0,0-.624.624v2.236H49.988a.552.552,0,0,0-.624.624v.572a.552.552,0,0,0,.624.624h1.066V-5.538c0,3.822,1.9,5.746,5.668,5.746A8.45,8.45,0,0,0,58.048.1a.645.645,0,0,0,.624-.728v-.624a.474.474,0,0,0-.624-.494,5.96,5.96,0,0,1-1.118.1c-2.548,0-3.822-1.508-3.822-4.5V-15.6h4.5a.552.552,0,0,0,.624-.624V-16.8a.552.552,0,0,0-.624-.624h-4.5ZM63.4-21.45a.552.552,0,0,0-.624-.624h-.728a.552.552,0,0,0-.624.624V-.624A.552.552,0,0,0,62.052,0h.806a.552.552,0,0,0,.624-.624V-11.96c0-1.742,1.092-5.226,4.394-5.226,2.73,0,4.108,1.69,4.108,5.044V-.624A.552.552,0,0,0,72.608,0h.806a.552.552,0,0,0,.624-.624V-12.506a7.547,7.547,0,0,0-1.352-4.706,5.081,5.081,0,0,0-4.368-1.82,4.985,4.985,0,0,0-3.64,1.3,4.2,4.2,0,0,0-1.17,1.95h-.1ZM79.362-1.177A3.067,3.067,0,0,0,81.605-2a2.968,2.968,0,0,0,.847-2.2,2.993,2.993,0,0,0-.847-2.211,3.036,3.036,0,0,0-2.244-.847,3,3,0,0,0-2.222.847A2.986,2.986,0,0,0,76.3-4.2,2.943,2.943,0,0,0,77.14-2,3.031,3.031,0,0,0,79.362-1.177Zm0-5.588a2.471,2.471,0,0,1,1.859.7A2.506,2.506,0,0,1,81.913-4.2a2.5,2.5,0,0,1-.693,1.848,2.544,2.544,0,0,1-1.859.682A2.359,2.359,0,0,1,76.842-4.2a2.544,2.544,0,0,1,.682-1.859A2.42,2.42,0,0,1,79.362-6.765Zm.671,2.7A1,1,0,0,0,80.8-5.1c0-.781-.5-1.177-1.5-1.177h-.836a.233.233,0,0,0-.264.264v3.443c0,.132.055.2.176.2h.2c.121,0,.176-.066.176-.2V-3.982H79.3a1.734,1.734,0,0,0,.209-.011l.748,1.43a.38.38,0,0,0,.363.187h.143c.121,0,.143-.066.066-.187ZM79.3-5.775c.649,0,.968.22.968.66s-.319.66-.957.66h-.55v-1.32Z" transform="translate(81.971 22.074)"/></svg>
